<svg xmlns="http://www.w3.org/2000/svg" viewBox="0 0 24 24"><title>Wallet Cash</title><g id="Wallet_Cash" data-name="Wallet Cash"><g id="_Group_" data-name="&lt;Group&gt;"><g id="_Group_2" data-name="&lt;Group&gt;"><path id="_Path_" data-name="&lt;Path&gt;" d="M21.5,17.5V21A1.5,1.5,0,0,1,20,22.5H3A1.5,1.5,0,0,1,1.5,21V9A1.5,1.5,0,0,1,3,7.5H20A1.5,1.5,0,0,1,21.5,9v3.5" style="fill:none;stroke:#303c42;stroke-linecap:round;stroke-linejoin:round"/><path id="_Rectangle_" data-name="&lt;Rectangle&gt;" d="M18,12.5h3.5a1,1,0,0,1,1,1v3a1,1,0,0,1-1,1H18A2.5,2.5,0,0,1,15.5,15v0A2.5,2.5,0,0,1,18,12.5Z" style="fill:none;stroke:#303c42;stroke-linecap:round;stroke-linejoin:round"/><circle id="_Path_2" data-name="&lt;Path&gt;" cx="18" cy="15" r="0.5" style="fill:none;stroke:#303c42;stroke-linecap:round;stroke-linejoin:round"/></g><g id="_Group_3" data-name="&lt;Group&gt;"><g id="_Group_4" data-name="&lt;Group&gt;"><path id="_Path_3" data-name="&lt;Path&gt;" d="M19.86,7.5l-3-5.25a1.48,1.48,0,0,0-2-.55l-10,5.8" style="fill:none;stroke:#303c42;stroke-linecap:round;stroke-linejoin:round"/></g></g><path id="_Path_4" data-name="&lt;Path&gt;" d="M12.56,3A4,4,0,0,0,16,5a4,4,0,0,0,2.08-.6" style="fill:none;stroke:#303c42;stroke-linecap:round;stroke-linejoin:round"/></g></g></svg>